<svg xmlns="http://www.w3.org/2000/svg" viewBox="0 0 32 32" width="32" height="32">
<rect width="32" height="32" fill="#1C1712"/>
<g transform="translate(3.520,21.944) scale(0.008221,-0.008221)" fill="#FAF6EF"><path d="M94 53Q94 95 138 110L188 123Q213 132 225.0 145.5Q237 159 237 182V1218Q237 1240 225.0 1254.0Q213 1268 188 1277L138 1290Q94 1305 94 1348Q94 1372 110.5 1386.0Q127 1400 161 1400H733Q918 1400 1069.0 1345.5Q1220 1291 1329.0 1191.0Q1438 1091 1497.0 953.5Q1556 816 1556 649Q1556 460 1467.0 313.5Q1378 167 1215.0 83.5Q1052 0 827 0H161Q127 0 110.5 14.5Q94 29 94 53ZM786 112Q895 112 979.5 170.0Q1064 228 1111.5 348.5Q1159 469 1159 657Q1159 805 1127.0 922.0Q1095 1039 1034.0 1120.5Q973 1202 887.0 1245.0Q801 1288 693 1288H621V208Q621 159 648.0 135.5Q675 112 726 112Z"/><path d="M2976 390Q2975 313 2934.5 237.0Q2894 161 2818.5 99.0Q2743 37 2637.0 -0.5Q2531 -38 2399 -38Q2180 -38 2020.5 55.0Q1861 148 1774.5 312.5Q1688 477 1688 691Q1688 852 1740.0 988.0Q1792 1124 1885.0 1224.5Q1978 1325 2103.5 1380.5Q2229 1436 2376 1436Q2472 1436 2532.5 1418.0Q2593 1400 2628.5 1382.0Q2664 1364 2686 1364Q2712 1364 2728.5 1380.5Q2745 1397 2762.5 1413.5Q2780 1430 2806 1430Q2826 1430 2839.0 1417.0Q2852 1404 2861 1374L2964 1018Q2972 993 2959.0 973.0Q2946 953 2921 947Q2894 941 2872.0 951.5Q2850 962 2838 990Q2785 1112 2721.5 1182.5Q2658 1253 2586.0 1282.5Q2514 1312 2436 1312Q2355 1312 2289.0 1274.5Q2223 1237 2175.5 1166.0Q2128 1095 2102.0 994.5Q2076 894 2076 768Q2076 569 2133.0 434.0Q2190 299 2289.5 230.5Q2389 162 2518 162Q2639 162 2732.0 223.0Q2825 284 2879 398Q2892 424 2907.5 432.0Q2923 440 2942 437Q2960 434 2968.0 422.0Q2976 410 2976 390Z"/></g>
</svg>